<svg xmlns="http://www.w3.org/2000/svg" viewBox="0 0 821.38 151.84"><defs><style>.cls-1{fill:#efefef;}</style></defs><title>AF_Logo Constella Light_RGB</title><g id="Layer_2" data-name="Layer 2"><g id="Capa_1" data-name="Capa 1"><path class="cls-1" d="M269.76,89q-1.63,11.6-9.52,18.14a28.59,28.59,0,0,1-18.88,6.54q-14.27,0-22.29-10t-8-27.8q0-17.69,8.1-27.72t22.22-10q10.56,0,17.77,5.42T269,59.42h20.37Q286.11,40.55,273,30.58t-31.67-10q-23.19,0-37.16,14.87T190.08,75.92q0,25.27,14.27,40.29,14.11,15,37,15,19,0,32.71-11T289.82,89Z"/><path class="cls-1" d="M365.93,61.21q-10.71-10.86-28.24-10.86t-28.25,11q-10.85,10.86-10.85,29.14t10.85,29.14q10.71,11,28.25,11t28.24-11q10.69-11,10.7-29.14Q376.63,72.06,365.93,61.21Zm-13.6,47.49q-5.28,6.47-14.64,6.47T323,108.77q-5.27-6.39-5.27-18.28T323,72.21q5.28-6.39,14.65-6.4t14.64,6.47q5.28,6.47,5.28,18.21T352.33,108.7Z"/><path class="cls-1" d="M450.88,57.56q-7.22-7.2-19.7-7.21-15.15,0-23.93,12.79v-11H389.12v76.7h18.73v-43q0-9.06,5-14.19a16.23,16.23,0,0,1,12.11-5.13q14.42,0,14.42,14.57v47.71h18.73V78Q458.09,64.77,450.88,57.56Z"/><path class="cls-1" d="M531.89,91.53q-6.32-5.5-20.29-8L501.94,82q-6.84-1.2-9.81-3.35a7,7,0,0,1-3-6q0-8.91,13.38-8.92,7.88,0,11.89,2.9t4.31,9.74h17.69q-1-26-33.89-26-15.17,0-23.49,6.17t-8.33,17q0,19,25.13,23.19l8.77,1.49q8.48,1.48,11.74,3.72a7.25,7.25,0,0,1,3.27,6.39q0,9.21-15.16,9.22-8.48,0-12.41-3t-4.69-10.11H469.09q1.49,26.46,35.08,26.46,16.2,0,25.12-6.24t8.92-17.84Q538.21,97,531.89,91.53Z"/><path class="cls-1" d="M587.71,66.41V52.14H572.55V29.84H554v22.3h-11.9V66.41H554v43.41q0,10.25,5.72,14.93t18.21,4.69q3.72,0,9.81-.6V114.57h-6.39q-4.76,0-6.77-1.48c-1.33-1-2-2.73-2-5.21V66.41Z"/><path class="cls-1" d="M670.36,90.83q0-18.58-10.26-30T632.45,49.35q-16.94,0-27.5,11-10.4,11-10.4,29.14c0,12.09,3.51,22.8,10.55,30.14s16.25,11,27.65,11q13.68,0,23.19-6.92a31.92,31.92,0,0,0,12.29-17.93H650.11q-4.85,10.27-17.21,10.28-8.62,0-13.75-5c-3.42-3.32-5.48-10.25-6.17-16.79h57.38Zm-57.23-8.62q2.67-18.28,19.17-18.29,8,0,13.09,4.91t6.24,13.38Z"/><path class="cls-1" d="M683.14,23V128.84h18.73V23Z"/><path class="cls-1" d="M717.77,23V128.84H736.5V23Z"/><path class="cls-1" d="M818.26,114.27V73.4q0-23.06-32-23.05-32.85,0-34.49,26.17h18.44q.59-6.69,4.16-9.44t11.74-2.75q7.59,0,10.78,2.3t3.2,7.21a7.23,7.23,0,0,1-2.53,6c-1.69,1.34-4.46,2.26-8.33,2.75l-11.59,1q-29.43,3-29.43,23.94,0,10.84,7.5,16.94t20.15,6.1q16.94,0,24.67-11.15c.5,4.65,1.19,7.78,2.08,9.36h18.73Q818.26,124.39,818.26,114.27ZM800.13,98.52q0,9.06-5.5,13.9t-14.27,4.83q-6.25,0-9.59-2.75a9.39,9.39,0,0,1-3.35-7.66,9.1,9.1,0,0,1,3.2-7.5q3.2-2.61,10.63-3.5l10.11-1.19q6.09-.74,8.77-3.12Z"/><circle class="cls-1" cx="56.8" cy="18.55" r="18.55"/><circle class="cls-1" cx="133.29" cy="18.55" r="18.55"/><circle class="cls-1" cx="18.55" cy="56.8" r="18.55"/><circle class="cls-1" cx="56.8" cy="95.04" r="18.55"/><circle class="cls-1" cx="133.29" cy="95.04" r="18.55"/><circle class="cls-1" cx="18.55" cy="133.29" r="18.55"/><circle class="cls-1" cx="95.04" cy="133.29" r="18.55"/><circle class="cls-1" cx="95.04" cy="56.8" r="18.55"/></g></g></svg>