<?xml version="1.0" encoding="utf-8"?>
<!-- Generator: Adobe Illustrator 28.3.0, SVG Export Plug-In . SVG Version: 6.00 Build 0)  -->
<svg version="1.1" id="Capa_1" xmlns="http://www.w3.org/2000/svg" xmlns:xlink="http://www.w3.org/1999/xlink" x="0px" y="0px"
	 viewBox="0 0 821.6 152" style="enable-background:new 0 0 821.6 152;" xml:space="preserve">
<style type="text/css">
	.st0{fill:#232323;}
</style>
<g id="Layer_2_00000128461078871755278240000006692978388417449632_">
	<g id="Capa_1_00000026154266973154225950000007895348398034480814_">
		<path class="st0" d="M269.9,89.1c-1.1,7.7-4.3,13.8-9.5,18.1c-5.3,4.4-12,6.7-18.9,6.5c-9.5,0-16.9-3.3-22.3-10
			c-5.3-6.7-8-15.9-8-27.8c0-11.8,2.7-21,8.1-27.7c5.4-6.7,12.8-10,22.2-10c7,0,13,1.8,17.8,5.4s8.1,8.9,9.8,15.8h20.4
			c-2.2-12.6-7.6-22.2-16.4-28.8s-19.3-10-31.7-10c-15.5,0-27.8,5-37.2,14.9c-9.3,9.9-14,23.4-14.1,40.5c0,16.8,4.8,30.3,14.3,40.3
			c9.4,10,21.7,15,37,15c12.7,0,23.6-3.7,32.7-11s14.4-17.7,15.8-31.2C289.9,89.1,269.9,89.1,269.9,89.1z"/>
		<path class="st0" d="M366,61.3c-7.1-7.2-16.6-10.9-28.2-10.9c-11.7,0-21.1,3.7-28.2,11c-7.2,7.2-10.9,17-10.9,29.1
			s3.6,21.9,10.9,29.1c7.1,7.3,16.6,11,28.2,11s21.1-3.7,28.2-11s10.7-17,10.7-29.1C376.7,78.3,373.2,68.5,366,61.3z M352.4,108.8
			c-3.5,4.3-8.4,6.5-14.6,6.5s-11.1-2.1-14.7-6.4c-3.5-4.3-5.3-10.4-5.3-18.3s1.8-14,5.3-18.3s8.4-6.4,14.6-6.4s11.1,2.2,14.6,6.5
			s5.3,10.4,5.3,18.2C357.7,98.4,355.9,104.5,352.4,108.8z"/>
		<path class="st0" d="M451,57.7c-4.8-4.8-11.4-7.2-19.7-7.2c-10.1,0-18.1,4.3-23.9,12.8v-11h-18.1V129H408V86c0-6,1.7-10.8,5-14.2
			c3.1-3.3,7.5-5.2,12.1-5.1c9.6,0,14.4,4.9,14.4,14.6V129h18.7V78.1C458.2,69.3,455.8,62.5,451,57.7z"/>
		<path class="st0" d="M532,91.6c-4.2-3.7-11-6.3-20.3-8l-9.7-1.5c-4.6-0.8-7.8-1.9-9.8-3.3s-3.1-3.6-3-6c0-5.9,4.5-8.9,13.4-8.9
			c5.3,0,9.2,1,11.9,2.9c2.7,1.9,4.1,5.2,4.3,9.7h17.7c-0.7-17.3-12-26-33.9-26c-10.1,0-17.9,2.1-23.5,6.2s-8.3,9.8-8.3,17
			c0,12.7,8.4,20.4,25.1,23.2l8.8,1.5c5.7,1,9.6,2.2,11.7,3.7c2.1,1.4,3.4,3.8,3.3,6.4c0,6.1-5.1,9.2-15.2,9.2c-5.7,0-9.8-1-12.4-3
			s-4.2-5.4-4.7-10.1h-18.3c1,17.6,12.7,26.5,35.1,26.5c10.8,0,19.2-2.1,25.1-6.2c5.9-4.1,8.9-10.1,8.9-17.8
			C538.3,100.4,536.2,95.3,532,91.6z"/>
		<path class="st0" d="M587.8,66.5V52.2h-15.2V29.9h-18.5v22.3h-11.9v14.3h11.9v43.4c0,6.8,1.9,11.8,5.7,14.9s9.9,4.7,18.2,4.7
			c2.5,0,5.8-0.2,9.8-0.6v-14.3h-6.4c-3.2,0-5.4-0.5-6.8-1.5c-1.3-1-2-2.7-2-5.2V66.5H587.8z"/>
		<path class="st0" d="M670.5,90.9c0-12.4-3.4-22.4-10.3-30c-6.9-7.6-16.1-11.4-27.6-11.5c-11.3,0-20.5,3.7-27.5,11
			c-6.9,7.3-10.4,17-10.4,29.1s3.5,22.8,10.5,30.1s16.2,11,27.7,11c9.1,0,16.9-2.3,23.2-6.9c6.1-4.4,10.4-10.7,12.3-17.9h-18.1
			c-3.2,6.8-9,10.3-17.2,10.3c-5.7,0-10.3-1.7-13.8-5c-3.4-3.3-5.5-10.2-6.2-16.8h57.4L670.5,90.9L670.5,90.9z M613.2,82.3
			C615,70.1,621.4,64,632.4,64c5.3,0,9.7,1.6,13.1,4.9c3.4,3.3,5.5,7.7,6.2,13.4H613.2z"/>
		<path class="st0" d="M683.2,23.1v105.8h18.7V23.1H683.2z"/>
		<path class="st0" d="M717.9,23.1v105.8h18.7V23.1H717.9z"/>
		<path class="st0" d="M818.4,114.4V73.5c0-15.4-10.7-23.1-32-23c-21.9,0-33.4,8.7-34.5,26.2h18.4c0.4-4.5,1.8-7.6,4.2-9.4
			s6.3-2.8,11.7-2.8c5.1,0,8.7,0.8,10.8,2.3s3.2,3.9,3.2,7.2c0.2,2.3-0.8,4.5-2.5,6c-1.7,1.3-4.5,2.3-8.3,2.8l-11.6,1
			c-19.6,2-29.4,10-29.4,23.9c0,7.2,2.5,12.9,7.5,16.9c5,4.1,11.7,6.1,20.2,6.1c11.3,0,19.5-3.7,24.7-11.2c0.5,4.7,1.2,7.8,2.1,9.4
			h18.7C819.4,126,818.4,121.1,818.4,114.4z M800.2,98.6c0,6-1.8,10.7-5.5,13.9c-3.7,3.2-8.4,4.8-14.3,4.8c-4.2,0-7.4-0.9-9.6-2.8
			c-2.3-1.9-3.5-4.7-3.3-7.7c-0.2-2.9,1-5.6,3.2-7.5c2.1-1.7,5.7-2.9,10.6-3.5l10.1-1.2c4.1-0.5,7-1.5,8.8-3.1V98.6z"/>
		<circle class="st0" cx="56.9" cy="18.6" r="18.5"/>
		<circle class="st0" cx="133.4" cy="18.6" r="18.6"/>
		<circle class="st0" cx="18.6" cy="56.9" r="18.5"/>
		<circle class="st0" cx="56.9" cy="95.1" r="18.5"/>
		<circle class="st0" cx="133.4" cy="95.1" r="18.5"/>
		<circle class="st0" cx="18.6" cy="133.4" r="18.6"/>
		<circle class="st0" cx="95.1" cy="133.4" r="18.5"/>
		<circle class="st0" cx="95.1" cy="56.9" r="18.5"/>
	</g>
</g>
</svg>
